HIERARCHY
ROOT joint_Root
{
	OFFSET 0.0 0.0 0.0
	CHANNELS 6 Xposition Yposition Zposition Zrotation Xrotation Yrotation 
	JOINT Hips
	{
		OFFSET -0.726466 93.3139 -2.00062
		CHANNELS 6 Xposition Yposition Zposition Zrotation Xrotation Yrotation 
		JOINT Spine
		{
			OFFSET 15.7357 0.0 0.0
			CHANNELS 6 Xposition Yposition Zposition Zrotation Xrotation Yrotation 
			JOINT Chest
			{
				OFFSET 8.98455 -0.406207 0.0
				CHANNELS 6 Xposition Yposition Zposition Zrotation Xrotation Yrotation 
				JOINT Neck
				{
					OFFSET 16.3773 0.0 0.0
					CHANNELS 6 Xposition Yposition Zposition Zrotation Xrotation Yrotation 
					JOINT Head
					{
						OFFSET 6.45672 0.0 0.0
						CHANNELS 6 Xposition Yposition Zposition Zrotation Xrotation Yrotation 
						End Site
						{
							OFFSET 0.0 0.0 0.0
						}
					}
				}
				JOINT Shoulder_L
				{
					OFFSET 12.9942 -0.242716 4.98039
					CHANNELS 6 Xposition Yposition Zposition Zrotation Xrotation Yrotation 
					JOINT UpperArm_L
					{
						OFFSET 5.34809 0.0 0.0
						CHANNELS 6 Xposition Yposition Zposition Zrotation Xrotation Yrotation 
						JOINT LowerArm_L
						{
							OFFSET 24.3286 1.87007e-05 0.0
							CHANNELS 6 Xposition Yposition Zposition Zrotation Xrotation Yrotation 
							JOINT Hand_L
							{
								OFFSET 22.2916 0.0 0.0
								CHANNELS 6 Xposition Yposition Zposition Zrotation Xrotation Yrotation 
								End Site
								{
									OFFSET 0.0 0.0 0.0
								}
							}
						}
					}
				}
				JOINT Shoulder_R
				{
					OFFSET 12.9945 -0.242716 -4.98039
					CHANNELS 6 Xposition Yposition Zposition Zrotation Xrotation Yrotation 
					JOINT UpperArm_R
					{
						OFFSET -5.34813 0.0 0.0
						CHANNELS 6 Xposition Yposition Zposition Zrotation Xrotation Yrotation 
						JOINT LowerArm_R
						{
							OFFSET -24.3289 0.000322201 0.0
							CHANNELS 6 Xposition Yposition Zposition Zrotation Xrotation Yrotation 
							JOINT Hand_R
							{
								OFFSET -22.2915 -0.000108084 0.0
								CHANNELS 6 Xposition Yposition Zposition Zrotation Xrotation Yrotation 
								End Site
								{
									OFFSET 0.0 0.0 0.0
								}
							}
						}
					}
				}
			}
		}
		JOINT UpperLeg_L
		{
			OFFSET -2.19248 -6.46944 0.0
			CHANNELS 6 Xposition Yposition Zposition Zrotation Xrotation Yrotation 
			JOINT LowerLeg_L
			{
				OFFSET 39.0811 0.0 -1.23785e-05
				CHANNELS 6 Xposition Yposition Zposition Zrotation Xrotation Yrotation 
				JOINT Foot_L
				{
					OFFSET 40.9854 0.0 -1.26872e-05
					CHANNELS 6 Xposition Yposition Zposition Zrotation Xrotation Yrotation 
					JOINT Toes_L
					{
						OFFSET 11.7543 0.0 0.0
						CHANNELS 6 Xposition Yposition Zposition Zrotation Xrotation Yrotation 
						End Site
						{
							OFFSET 0.0 0.0 0.0
						}
					}
				}
			}
		}
		JOINT UpperLeg_R
		{
			OFFSET -2.19251 6.46944 0.0
			CHANNELS 6 Xposition Yposition Zposition Zrotation Xrotation Yrotation 
			JOINT LowerLeg_R
			{
				OFFSET -39.0811 -0.00228153 -0.0401928
				CHANNELS 6 Xposition Yposition Zposition Zrotation Xrotation Yrotation 
				JOINT Foot_R
				{
					OFFSET -40.9854 0.0 0.0
					CHANNELS 6 Xposition Yposition Zposition Zrotation Xrotation Yrotation 
					JOINT Toes_R
					{
						OFFSET -11.7543 0.0 0.0
						CHANNELS 6 Xposition Yposition Zposition Zrotation Xrotation Yrotation 
						End Site
						{
							OFFSET 0.0 0.0 0.0
						}
					}
				}
			}
		}
	}
}
MOTION
Frames:	4
Frame Time:	0.0333333
0.000000 0.000000 0.000000 0.000000 0.000000 -0.000000 -1.152910 92.462800 -1.691870 88.187100 0.478279 4.187070 15.735700 0.000005 -0.000001 84.976600 85.588800 -84.140300 8.984550 -0.406207 -0.000000 1.029100 -0.821342 1.678720 16.377300 -0.000001 -0.000001 3.150100 -3.107960 0.845375 6.456720 -0.000001 -0.000000 6.387020 -4.068280 -0.809025 12.994200 -0.242716 4.980390 -89.702400 -0.885641 -71.425500 5.348090 -0.000007 -0.000001 -71.260600 38.316100 -11.233400 24.328600 0.000019 0.000005 1.493810 3.598790 -22.560000 22.291600 -0.000001 0.000005 5.714760 5.477850 -5.666430 12.994500 -0.242716 -4.980390 88.368400 5.048520 -72.064100 -5.348130 -0.000001 -0.000004 -66.965500 37.017500 -13.844600 -24.328900 0.000322 -0.000009 3.070200 9.242490 -18.472400 -22.291500 -0.000108 -0.000004 7.708760 5.346560 -1.274110 -2.192480 -6.469440 -0.000000 -175.166000 -6.827500 -3.073950 39.081100 -0.000007 -0.000012 -0.103996 0.255523 22.146100 40.985400 -0.000006 -0.000013 -0.227361 5.404710 -65.121900 11.754300 -0.000000 0.000003 -0.000045 -0.000515 -16.597600 -2.192510 6.469440 -0.000001 -179.736000 14.825900 179.675000 -39.081100 -0.002282 -0.040193 -0.041100 0.130453 18.805300 -40.985400 0.000008 0.000006 3.529520 7.206290 -64.871500 -11.754300 -0.000006 -0.000006 -0.008736 -0.093939 -20.399100
0.000000 0.000000 0.000000 0.000000 0.000000 -0.000000 -1.170710 92.468900 -1.712770 88.188500 0.510343 4.183330 15.735700 0.000005 -0.000001 84.981700 85.583800 -84.206700 8.984550 -0.406207 -0.000000 1.038620 -0.817777 1.556180 16.377300 -0.000001 -0.000001 3.076520 -3.144060 0.912940 6.456720 -0.000001 -0.000000 6.422810 -4.095790 -0.661303 12.994200 -0.242716 4.980390 -89.671000 -0.978301 -71.410300 5.348090 -0.000007 -0.000001 -71.364000 38.098300 -11.228800 24.328600 0.000019 0.000005 1.482770 3.575550 -22.540700 22.291600 -0.000001 0.000005 5.616340 5.475780 -5.587570 12.994500 -0.242716 -4.980390 88.349100 5.077690 -71.962800 -5.348130 -0.000001 -0.000004 -66.991600 35.357500 -13.446200 -24.328900 0.000322 -0.000009 3.651230 9.528250 -21.086600 -22.291500 -0.000108 -0.000004 7.107100 5.336940 -0.988834 -2.192480 -6.469440 -0.000000 -175.154000 -6.864150 -3.082170 39.081100 -0.000007 -0.000012 -0.103434 0.254587 22.111100 40.985400 -0.000006 -0.000013 -0.226113 5.466810 -65.082400 11.754300 -0.000000 0.000003 -0.000045 -0.000518 -16.597700 -2.192510 6.469440 -0.000001 -179.719000 14.826100 179.685000 -39.081100 -0.002282 -0.040193 -0.040603 0.129361 18.755700 -40.985400 0.000008 0.000006 3.522100 7.199190 -64.838000 -11.754300 -0.000006 -0.000006 -0.008617 -0.092994 -20.360500
0.000000 0.000000 0.000000 0.000000 0.000000 -0.000000 -1.193800 92.469700 -1.714910 88.180700 0.566980 4.179120 15.735700 0.000005 -0.000001 84.500900 85.563800 -83.789600 8.984550 -0.406207 -0.000000 1.071560 -0.891427 1.429890 16.377300 -0.000001 -0.000001 2.961610 -3.096580 0.885123 6.456720 -0.000001 -0.000000 6.357420 -4.039770 -0.543036 12.994200 -0.242716 4.980390 -89.643800 -1.054980 -71.340200 5.348090 -0.000007 -0.000001 -71.417300 37.893800 -11.217900 24.328600 0.000019 0.000005 1.543220 3.719430 -22.552500 22.291600 -0.000001 0.000005 5.704300 5.479120 -5.714630 12.994500 -0.242716 -4.980390 88.254100 5.264360 -71.623200 -5.348130 -0.000001 -0.000004 -67.000600 30.875000 -13.114000 -24.328900 0.000322 -0.000009 4.118800 8.674790 -25.529400 -22.291500 -0.000108 -0.000004 6.475430 5.344570 -1.215000 -2.192480 -6.469440 -0.000000 -175.127000 -6.863730 -3.094650 39.081100 -0.000007 -0.000012 -0.103877 0.255694 22.109800 40.985400 -0.000006 -0.000013 -0.238567 5.500590 -65.073600 11.754300 -0.000000 0.000003 -0.000042 -0.000490 -16.596600 -2.192510 6.469440 -0.000001 -179.708000 14.895000 179.699000 -39.081100 -0.002282 -0.040193 -0.042038 0.133871 18.718900 -40.985400 0.000008 0.000006 3.449270 7.206400 -64.808900 -11.754300 -0.000006 -0.000006 -0.009010 -0.096086 -20.486900
0.000000 0.000000 0.000000 0.000000 0.000000 -0.000000 -1.218080 92.477000 -1.763830 88.194100 0.631238 4.161100 15.735700 0.000005 -0.000001 83.261900 85.550500 -82.626100 8.984550 -0.406207 -0.000000 1.078120 -1.080790 1.280900 16.377300 -0.000001 -0.000001 2.977380 -2.986080 0.839460 6.456720 -0.000001 -0.000000 6.039460 -3.724740 -0.665560 12.994200 -0.242716 4.980390 -89.625400 -1.106690 -71.296100 5.348090 -0.000007 -0.000001 -71.535400 37.578900 -11.069300 24.328600 0.000019 0.000005 1.555030 3.739850 -22.596400 22.291600 -0.000001 0.000005 5.789200 5.480960 -5.785120 12.994500 -0.242716 -4.980390 88.164400 5.354070 -71.044800 -5.348130 -0.000001 -0.000004 -66.781900 25.001700 -13.818300 -24.328900 0.000322 -0.000009 3.971620 6.631710 -31.022800 -22.291500 -0.000108 -0.000004 7.832920 5.355240 -1.535120 -2.192480 -6.469440 -0.000000 -175.123000 -6.923210 -3.142330 39.081100 -0.000007 -0.000012 -0.103160 0.254412 22.071800 40.985400 -0.000006 -0.000013 -0.233165 5.610360 -65.006800 11.754300 -0.000000 0.000003 -0.000042 -0.000489 -16.596600 -2.192510 6.469440 -0.000001 -179.674000 14.932100 179.655000 -39.081100 -0.002282 -0.040193 -0.040173 0.128423 18.711200 -40.985400 0.000008 0.000006 3.549180 7.124360 -64.795300 -11.754300 -0.000006 -0.000006 -0.009047 -0.096370 -20.498500
